<svg width="50" height="50" viewBox="0 0 71 71" fill="none" xmlns="http://www.w3.org/2000/svg">
<path d="M35.5 16V68M61.5 32.25V57.6C61.5 61.2403 61.5 63.0607 60.7915 64.451C60.1685 65.674 59.174 66.6685 57.951 67.2915C56.5607 68 54.7403 68 51.1 68H19.9C16.2596 68 14.4395 68 13.0491 67.2915C11.826 66.6685 10.8316 65.674 10.2085 64.451C9.5 63.0607 9.5 61.2403 9.5 57.6V32.25M35.5 16H24.0089C22.3158 16 20.692 15.3152 19.4948 14.0962C18.2976 12.8772 17.625 11.2239 17.625 9.5C17.625 7.7761 18.2976 6.1228 19.4948 4.90382C20.692 3.68481 22.3158 3 24.0089 3C32.9465 3 35.5 16 35.5 16ZM35.5 16H46.991C48.6843 16 50.308 15.3152 51.5053 14.0962C52.7022 12.8772 53.375 11.2239 53.375 9.5C53.375 7.7761 52.7022 6.1228 51.5053 4.90382C50.308 3.68481 48.6843 3 46.991 3C38.0535 3 35.5 16 35.5 16ZM3 21.2V27.05C3 28.8702 3 29.7803 3.35422 30.4755C3.66583 31.087 4.16301 31.5842 4.77453 31.8958C5.46974 32.25 6.37984 32.25 8.2 32.25H62.8C64.6203 32.25 65.5303 32.25 66.2255 31.8958C66.8372 31.5842 67.3341 31.087 67.6458 30.4755C68 29.7803 68 28.8702 68 27.05V21.2C68 19.3798 68 18.4697 67.6458 17.7745C67.3341 17.163 66.8372 16.6658 66.2255 16.3542C65.5303 16 64.6203 16 62.8 16H8.2C6.37984 16 5.46974 16 4.77453 16.3542C4.16301 16.6658 3.66583 17.163 3.35422 17.7745C3 18.4697 3 19.3798 3 21.2Z" stroke="#2B2BE7" stroke-width="6" stroke-linecap="round" stroke-linejoin="round"/>
</svg>
