<svg width="98" height="73" viewBox="0 0 98 73" fill="none" xmlns="http://www.w3.org/2000/svg">
<path d="M22 25.6667H22.045H22ZM31 47.3333H31.045H31ZM40 25.6667H40.045H40ZM49 47.3333H49.045H49ZM58 25.6667H58.045H58ZM67 47.3333H67.045H67ZM76 25.6667H76.045H76ZM18.4 69H79.6C84.6404 69 87.1609 69 89.086 67.8192C90.7794 66.7808 92.1563 65.1233 93.019 63.085C94 60.7677 94 57.7339 94 51.6667V21.3333C94 15.2661 94 12.2325 93.019 9.91511C92.1563 7.87665 90.7794 6.21937 89.086 5.18078C87.1609 4 84.6404 4 79.6 4H18.4C13.3595 4 10.8393 4 8.91409 5.18078C7.22061 6.21937 5.84379 7.87665 4.98096 9.91511C4 12.2325 4 15.2661 4 21.3333V51.6667C4 57.7339 4 60.7677 4.98096 63.085C5.84379 65.1233 7.22061 66.7808 8.91409 67.8192C10.8393 69 13.3595 69 18.4 69Z" stroke="url(#paint0_linear_52_3)" stroke-width="8" stroke-linecap="round" stroke-linejoin="round"/>
<defs>
<linearGradient id="paint0_linear_52_3" x1="9.5" y1="4.00001" x2="94" y2="69" gradientUnits="userSpaceOnUse">
<stop stop-color="#60C657"/>
<stop offset="1" stop-color="#2B2BE7"/>
</linearGradient>
</defs>
</svg>
