<svg width="26" height="26" viewBox="0 0 26 26" fill="none" xmlns="http://www.w3.org/2000/svg">
<path d="M13 16.6C9.02355 16.6 5.8 13.3765 5.8 9.4V2.73333C5.8 2.23672 5.8 1.98841 5.87237 1.78958C5.99369 1.45626 6.25626 1.19369 6.58958 1.07237C6.78841 1 7.03672 1 7.53333 1H18.4667C18.9633 1 19.2116 1 19.4104 1.07237C19.7437 1.19369 20.0063 1.45626 20.1276 1.78958C20.2 1.98841 20.2 2.23672 20.2 2.73333V9.4C20.2 13.3765 16.9765 16.6 13 16.6ZM13 16.6V20.2M20.2 3.4H23.2C23.7591 3.4 24.0387 3.4 24.2592 3.49134C24.5533 3.61314 24.7869 3.84675 24.9087 4.14078C25 4.36131 25 4.64087 25 5.2V5.8C25 6.91597 25 7.47395 24.8773 7.93175C24.5445 9.17408 23.5741 10.1445 22.3317 10.4773C21.8739 10.6 21.316 10.6 20.2 10.6M5.8 3.4H2.8C2.24087 3.4 1.96131 3.4 1.74078 3.49134C1.44675 3.61314 1.21314 3.84675 1.09134 4.14078C1 4.36131 1 4.64087 1 5.2V5.8C1 6.91597 1 7.47395 1.12267 7.93175C1.45555 9.17408 2.42592 10.1445 3.66825 10.4773C4.12605 10.6 4.68403 10.6 5.8 10.6M7.53333 25H18.4667C18.7612 25 19 24.7612 19 24.4667C19 22.1103 17.0897 20.2 14.7333 20.2H11.2667C8.91025 20.2 7 22.1103 7 24.4667C7 24.7612 7.23878 25 7.53333 25Z" stroke="white" stroke-width="2" stroke-linecap="round" stroke-linejoin="round"/>
</svg>
