<svg width="1090" height="367" viewBox="0 0 1090 367" fill="none" xmlns="http://www.w3.org/2000/svg">
<rect width="1090" height="367" fill="#121212"/>
<rect x="37" y="43" width="320" height="320" rx="30" fill="#121212"/>
<g filter="url(#filter0_d_7_28)">
<rect x="72" y="60" width="250" height="250" rx="30" fill="white"/>
</g>
<rect x="90.5185" y="78.5185" width="212.963" height="212.963" rx="30" fill="#121212"/>
<path d="M186.486 157.422V141.364H282.171V157.422H243.595V265H225.001V157.422H186.486Z" fill="white"/>
<path d="M360.544 299.773C357.848 299.773 355.393 299.551 353.179 299.109C350.965 298.706 349.315 298.263 348.229 297.781L352.575 282.99C355.875 283.875 358.813 284.258 361.389 284.137C363.965 284.016 366.239 283.05 368.211 281.239C370.223 279.428 371.994 276.47 373.523 272.365L375.757 266.207L341.83 172.273H361.148L384.631 244.233H385.597L409.081 172.273H428.46L390.246 277.376C388.475 282.205 386.221 286.29 383.484 289.631C380.748 293.011 377.488 295.547 373.705 297.237C369.921 298.928 365.535 299.773 360.544 299.773ZM445.423 299.773V172.273H463.051V187.305H464.56C465.607 185.373 467.116 183.139 469.088 180.604C471.06 178.068 473.797 175.855 477.298 173.963C480.8 172.031 485.428 171.065 491.183 171.065C498.669 171.065 505.35 172.957 511.226 176.74C517.102 180.523 521.71 185.977 525.05 193.1C528.431 200.224 530.121 208.796 530.121 218.817C530.121 228.839 528.451 237.431 525.111 244.595C521.77 251.719 517.182 257.212 511.347 261.076C505.511 264.899 498.85 266.811 491.364 266.811C485.73 266.811 481.122 265.865 477.54 263.974C473.998 262.082 471.221 259.869 469.209 257.333C467.196 254.798 465.647 252.544 464.56 250.572H463.474V299.773H445.423ZM463.112 218.636C463.112 225.156 464.057 230.871 465.949 235.781C467.84 240.691 470.577 244.535 474.159 247.312C477.741 250.049 482.128 251.417 487.32 251.417C492.713 251.417 497.22 249.988 500.842 247.131C504.464 244.233 507.201 240.309 509.053 235.359C510.944 230.408 511.89 224.834 511.89 218.636C511.89 212.519 510.964 207.025 509.113 202.156C507.302 197.286 504.565 193.442 500.903 190.625C497.281 187.808 492.753 186.399 487.32 186.399C482.088 186.399 477.661 187.747 474.038 190.444C470.456 193.14 467.74 196.903 465.888 201.733C464.037 206.562 463.112 212.197 463.112 218.636ZM590.31 266.871C581.174 266.871 573.306 264.92 566.705 261.016C560.145 257.071 555.074 251.538 551.492 244.414C547.951 237.25 546.18 228.859 546.18 219.24C546.18 209.742 547.951 201.371 551.492 194.126C555.074 186.882 560.065 181.228 566.464 177.163C572.903 173.098 580.429 171.065 589.042 171.065C594.274 171.065 599.345 171.931 604.255 173.661C609.165 175.392 613.572 178.108 617.476 181.811C621.38 185.514 624.459 190.323 626.712 196.239C628.966 202.115 630.093 209.259 630.093 217.67V224.07H556.382V210.547H612.405C612.405 205.798 611.439 201.592 609.507 197.93C607.575 194.227 604.859 191.309 601.357 189.176C597.896 187.043 593.831 185.977 589.163 185.977C584.092 185.977 579.665 187.224 575.881 189.719C572.138 192.174 569.241 195.394 567.188 199.379C565.176 203.323 564.17 207.609 564.17 212.237V222.802C564.17 229 565.256 234.272 567.43 238.619C569.643 242.965 572.722 246.286 576.666 248.58C580.61 250.833 585.219 251.96 590.491 251.96C593.912 251.96 597.031 251.477 599.848 250.511C602.665 249.505 605.1 248.016 607.153 246.044C609.205 244.072 610.775 241.637 611.862 238.739L628.946 241.818C627.578 246.849 625.123 251.256 621.581 255.039C618.08 258.782 613.673 261.7 608.36 263.793C603.088 265.845 597.071 266.871 590.31 266.871ZM650.121 265V172.273H667.567V187.003H668.533C670.224 182.012 673.202 178.088 677.468 175.231C681.774 172.333 686.644 170.884 692.077 170.884C693.204 170.884 694.532 170.924 696.062 171.005C697.631 171.085 698.859 171.186 699.744 171.307V188.572C699.02 188.371 697.732 188.15 695.881 187.908C694.029 187.627 692.178 187.486 690.327 187.486C686.06 187.486 682.257 188.391 678.917 190.202C675.617 191.973 673.001 194.448 671.069 197.628C669.137 200.767 668.171 204.349 668.171 208.374V265H650.121ZM800.485 180.423C799.318 176.76 797.749 173.48 795.777 170.582C793.845 167.644 791.531 165.149 788.834 163.097C786.138 161.004 783.059 159.414 779.598 158.327C776.177 157.241 772.414 156.697 768.309 156.697C761.346 156.697 755.068 158.488 749.473 162.07C743.879 165.652 739.452 170.904 736.192 177.827C732.972 184.709 731.363 193.14 731.363 203.121C731.363 213.143 732.993 221.615 736.252 228.537C739.512 235.459 743.98 240.711 749.654 244.293C755.329 247.875 761.789 249.666 769.033 249.666C775.754 249.666 781.61 248.298 786.6 245.561C791.631 242.824 795.515 238.961 798.252 233.97C801.029 228.939 802.417 223.023 802.417 216.222L807.247 217.127H771.87V201.733H820.468V215.799C820.468 226.183 818.254 235.198 813.827 242.844C809.44 250.451 803.363 256.327 795.596 260.472C787.868 264.618 779.014 266.69 769.033 266.69C757.845 266.69 748.025 264.115 739.573 258.963C731.161 253.812 724.601 246.507 719.892 237.049C715.184 227.551 712.829 216.282 712.829 203.242C712.829 193.382 714.198 184.528 716.934 176.68C719.671 168.832 723.515 162.171 728.465 156.697C733.455 151.184 739.311 146.978 746.032 144.08C752.794 141.142 760.179 139.673 768.188 139.673C774.869 139.673 781.087 140.659 786.842 142.631C792.637 144.603 797.789 147.401 802.297 151.023C806.844 154.645 810.607 158.951 813.586 163.942C816.564 168.892 818.576 174.386 819.623 180.423H800.485ZM881.758 266.871C873.064 266.871 865.478 264.879 858.998 260.895C852.519 256.911 847.488 251.336 843.906 244.173C840.324 237.009 838.533 228.638 838.533 219.059C838.533 209.44 840.324 201.029 843.906 193.825C847.488 186.62 852.519 181.026 858.998 177.042C865.478 173.058 873.064 171.065 881.758 171.065C890.451 171.065 898.037 173.058 904.517 177.042C910.997 181.026 916.027 186.62 919.609 193.825C923.191 201.029 924.982 209.44 924.982 219.059C924.982 228.638 923.191 237.009 919.609 244.173C916.027 251.336 910.997 256.911 904.517 260.895C898.037 264.879 890.451 266.871 881.758 266.871ZM881.818 251.719C887.452 251.719 892.121 250.23 895.824 247.251C899.526 244.273 902.263 240.309 904.034 235.359C905.845 230.408 906.751 224.955 906.751 218.999C906.751 213.082 905.845 207.649 904.034 202.699C902.263 197.708 899.526 193.704 895.824 190.685C892.121 187.667 887.452 186.158 881.818 186.158C876.143 186.158 871.434 187.667 867.692 190.685C863.989 193.704 861.232 197.708 859.421 202.699C857.65 207.649 856.765 213.082 856.765 218.999C856.765 224.955 857.65 230.408 859.421 235.359C861.232 240.309 863.989 244.273 867.692 247.251C871.434 250.23 876.143 251.719 881.818 251.719ZM979.843 266.811C972.357 266.811 965.676 264.899 959.8 261.076C953.964 257.212 949.376 251.719 946.036 244.595C942.736 237.431 941.086 228.839 941.086 218.817C941.086 208.796 942.756 200.224 946.096 193.1C949.477 185.977 954.105 180.523 959.981 176.74C965.857 172.957 972.518 171.065 979.963 171.065C985.719 171.065 990.347 172.031 993.848 173.963C997.39 175.855 1000.13 178.068 1002.06 180.604C1004.03 183.139 1005.56 185.373 1006.65 187.305H1007.73V141.364H1025.78V265H1008.16V250.572H1006.65C1005.56 252.544 1003.99 254.798 1001.94 257.333C999.926 259.869 997.149 262.082 993.607 263.974C990.065 265.865 985.477 266.811 979.843 266.811ZM983.827 251.417C989.019 251.417 993.406 250.049 996.988 247.312C1000.61 244.535 1003.35 240.691 1005.2 235.781C1007.09 230.871 1008.04 225.156 1008.04 218.636C1008.04 212.197 1007.11 206.562 1005.26 201.733C1003.41 196.903 1000.69 193.14 997.108 190.444C993.526 187.747 989.099 186.399 983.827 186.399C978.394 186.399 973.866 187.808 970.244 190.625C966.622 193.442 963.885 197.286 962.034 202.156C960.223 207.025 959.317 212.519 959.317 218.636C959.317 224.834 960.243 230.408 962.094 235.359C963.945 240.309 966.682 244.233 970.304 247.131C973.967 249.988 978.474 251.417 983.827 251.417Z" fill="white"/>
<defs>
<filter id="filter0_d_7_28" x="68" y="60" width="258" height="258" filterUnits="userSpaceOnUse" color-interpolation-filters="sRGB">
<feFlood flood-opacity="0" result="BackgroundImageFix"/>
<feColorMatrix in="SourceAlpha" type="matrix" values="0 0 0 0 0 0 0 0 0 0 0 0 0 0 0 0 0 0 127 0" result="hardAlpha"/>
<feOffset dy="4"/>
<feGaussianBlur stdDeviation="2"/>
<feComposite in2="hardAlpha" operator="out"/>
<feColorMatrix type="matrix" values="0 0 0 0 0 0 0 0 0 0 0 0 0 0 0 0 0 0 0.25 0"/>
<feBlend mode="normal" in2="BackgroundImageFix" result="effect1_dropShadow_7_28"/>
<feBlend mode="normal" in="SourceGraphic" in2="effect1_dropShadow_7_28" result="shape"/>
</filter>
</defs>
</svg>
