<svg width="26" height="26" viewBox="0 0 26 26" fill="none" xmlns="http://www.w3.org/2000/svg">
<path d="M6.71796 12.0268L1.80495 3.85662C1.24003 2.91718 0.957565 2.44746 1.00517 2.06287C1.0467 1.72734 1.23846 1.4236 1.53339 1.22622C1.87143 1 2.45045 1 3.60849 1H6.49428C6.92466 1 7.13985 1 7.33287 1.05776C7.50367 1.10887 7.66112 1.1925 7.7952 1.30331C7.94673 1.42854 8.05595 1.60085 8.27441 1.94545L13 9.4L17.7256 1.94545C17.944 1.60085 18.0533 1.42854 18.2048 1.30331C18.3389 1.1925 18.4963 1.10887 18.6671 1.05776C18.8601 1 19.0753 1 19.5057 1H22.3915C23.5496 1 24.1286 1 24.4666 1.22622C24.7615 1.4236 24.9533 1.72734 24.9948 2.06287C25.0424 2.44746 24.76 2.91718 24.1951 3.85662L19.282 12.0268M11.0631 15.4L13 14.2V20.2M11.3859 20.2H14.6141M18.935 11.6846C22.2128 14.7306 22.2128 19.6693 18.935 22.7154C15.6572 25.7615 10.3428 25.7615 7.065 22.7154C3.7872 19.6694 3.7872 14.7307 7.065 11.6846C10.3428 8.63848 15.6572 8.63848 18.935 11.6846Z" stroke="white" stroke-width="2" stroke-linecap="round" stroke-linejoin="round"/>
</svg>
