<svg width="26" height="24" viewBox="0 0 26 24" fill="none" xmlns="http://www.w3.org/2000/svg">
<path d="M1.42539 8.44964H24.5745M10.5632 1L8.12648 8.44964L12.9999 22.7281L17.8735 8.44964L15.4367 1M13.7488 22.4332L24.6637 9.08553C24.8488 8.85931 24.9413 8.7462 24.9766 8.61995C25.0078 8.50863 25.0078 8.39065 24.9766 8.27933C24.9413 8.15307 24.8488 8.03997 24.6637 7.81375L19.3841 1.3574C19.2767 1.22602 19.2231 1.16034 19.1571 1.11312C19.0988 1.07128 19.0337 1.0402 18.9649 1.02132C18.887 1 18.8032 1 18.6353 1H7.36462C7.1968 1 7.11291 1 7.03515 1.02132C6.96626 1.0402 6.90117 1.07128 6.84282 1.11312C6.77698 1.16034 6.72326 1.22602 6.61583 1.3574L1.3362 7.81375C1.15121 8.03996 1.05871 8.15307 1.02337 8.27933C0.992212 8.39065 0.992212 8.50863 1.02337 8.61994C1.05871 8.7462 1.15121 8.85931 1.3362 9.08553L12.2512 22.4332C12.5083 22.7477 12.6369 22.9049 12.7909 22.9623C12.9259 23.0126 13.074 23.0126 13.2091 22.9623C13.363 22.9049 13.4917 22.7477 13.7488 22.4332Z" stroke="white" stroke-width="2" stroke-linecap="round" stroke-linejoin="round"/>
</svg>
