<svg width="50" height="50" viewBox="0 0 71 71" fill="none" xmlns="http://www.w3.org/2000/svg">
<path d="M18.4861 32.8642L5.18006 10.7367C3.65007 8.19235 2.88507 6.92019 3.01399 5.87861C3.12648 4.96987 3.64584 4.14725 4.4446 3.61269C5.36011 3 6.9283 3 10.0647 3H17.8803C19.046 3 19.6288 3 20.1515 3.15643C20.6141 3.29486 21.0405 3.52135 21.4037 3.82147C21.8141 4.16064 22.1099 4.62729 22.7015 5.56059L35.5 25.75L48.2985 5.56059C48.8901 4.62729 49.1859 4.16064 49.5963 3.82147C49.9595 3.52135 50.3859 3.29486 50.8485 3.15643C51.3712 3 51.954 3 53.1197 3H60.9353C64.0717 3 65.6399 3 66.5554 3.61269C67.3542 4.14725 67.8735 4.96987 67.986 5.87861C68.1149 6.92019 67.3499 8.19235 65.8199 10.7367L52.5139 32.8642M30.2542 42L35.5 38.75V55M31.1285 55H39.8715M51.574 31.9374C60.4513 40.1872 60.4513 53.5628 51.574 61.8126C42.6966 70.0625 28.3035 70.0625 19.426 61.8126C10.5487 53.5628 10.5487 40.1872 19.426 31.9374C28.3034 23.6875 42.6965 23.6875 51.574 31.9374Z" stroke="#2B2BE7" stroke-width="6" stroke-linecap="round" stroke-linejoin="round"/>
</svg>
