<svg width="26" height="18" viewBox="0 0 26 18" fill="none" xmlns="http://www.w3.org/2000/svg">
<path d="M7 12.3333H19M5.8 6.33333H5.812M10.6 6.33333H10.612M15.4 6.33333H15.412M20.2 6.33333H20.212M4.84 17H21.16C22.5041 17 23.1762 17 23.6896 16.7094C24.1412 16.4537 24.5083 16.0457 24.7384 15.544C25 14.9735 25 14.2268 25 12.7333V5.26667C25 3.77319 25 3.02646 24.7384 2.45603C24.5083 1.95426 24.1412 1.54631 23.6896 1.29065C23.1762 1 22.5041 1 21.16 1H4.84C3.49587 1 2.82381 1 2.31042 1.29065C1.85883 1.54631 1.49168 1.95426 1.26158 2.45603C1 3.02646 1 3.77319 1 5.26667V12.7333C1 14.2268 1 14.9735 1.26158 15.544C1.49168 16.0457 1.85883 16.4537 2.31042 16.7094C2.82381 17 3.49587 17 4.84 17Z" stroke="white" stroke-width="2" stroke-linecap="round" stroke-linejoin="round"/>
</svg>
